<svg width="158" height="48" viewBox="0 0 158 48" fill="none" xmlns="http://www.w3.org/2000/svg">
<path d="M5.09446 28.73C6.27515 31.2663 8.50534 32.5563 11.6538 32.5563C15.9393 32.5563 18.1039 30.5885 18.1039 26.7185V1.55231H24.0292V26.7185C24.0292 30.4355 22.8485 33.3216 20.5309 35.3331C18.2132 37.3447 15.2615 38.3286 11.6101 38.3286C5.99091 38.3286 2.12087 36.1203 0 31.7255L5.09446 28.73Z" fill="white"/>
<path d="M28.7734 24.7726C28.7734 21.0119 30.1072 17.7541 32.7528 15.1303C35.3766 12.5066 38.5907 11.2166 42.3951 11.2166C46.2214 11.2166 49.4136 12.5066 52.0374 15.1303C54.6612 17.7541 56.0168 21.0119 56.0168 24.7726C56.0168 28.5333 54.683 31.7912 52.0374 34.4149C49.4136 37.0387 46.1995 38.3287 42.3951 38.3287C38.5688 38.3287 35.3766 37.0387 32.7528 34.4149C30.1072 31.7693 28.7734 28.5333 28.7734 24.7726ZM48.1236 30.5886C49.676 29.0362 50.4413 27.0903 50.4413 24.7508C50.4413 22.4112 49.676 20.4653 48.1236 18.9129C46.5712 17.3605 44.669 16.6171 42.3951 16.6171C40.1212 16.6171 38.219 17.3824 36.6666 18.9348C35.1142 20.4872 34.3489 22.4331 34.3489 24.7726C34.3489 27.1121 35.1142 29.0581 36.6666 30.6105C38.219 32.1629 40.1212 32.9281 42.3951 32.9281C44.669 32.9063 46.5712 32.141 48.1236 30.5886Z" fill="white"/>
<path d="M61.0679 37.6509V11.8725H66.6433V37.6728H61.0679V37.6509Z" fill="white"/>
<path d="M96.5539 37.6509V21.8209C96.5539 18.5631 95.6356 15.9393 93.8208 14.0371C92.006 12.113 88.2016 11.2534 85.2062 11.2534C81.5985 11.2534 77.8518 11.8536 75.6011 14.0371C73.3504 16.2206 73.0713 17.9508 73.0713 21.8209V37.6509H78.6468V23.8324C78.6468 21.4055 79.2808 19.547 80.4615 18.2569C81.5985 17.0107 83.1946 16.3985 85.2062 16.3985C86.9991 16.3985 88.3984 16.9232 89.426 17.9508C90.4537 18.9785 90.9784 20.4871 90.9784 22.3894V37.6509H96.5539Z" fill="white"/>
<path d="M116.954 17.2293H110.548V29.6047C110.548 31.0915 111.072 32.0754 112.144 32.4471C112.909 32.7095 114.527 32.7532 116.932 32.6439V37.6509C112.647 38.1756 109.607 37.8039 107.749 36.5576C105.89 35.2676 104.972 32.95 104.972 29.5828V17.2293H100.228V11.8725H104.972V6.29701L110.548 4.65717V11.8725H116.954V17.2293Z" fill="white"/>
<path d="M122.005 37.6509V0H127.58V37.6509H122.005Z" fill="white"/>
<path d="M151.413 11.8726H157.338L147.433 38.4818C144.962 45.1287 140.786 48.3428 134.839 47.9711V42.7673C138.031 42.9203 140.305 41.2805 141.705 37.7166L141.967 37.1918L131.035 11.8726H137.113L144.809 30.5887L151.413 11.8726Z" fill="white"/>
<path d="M37.8118 4.50138C37.8118 5.74409 38.2536 6.79349 39.1097 7.70481C40.021 8.53329 41.0704 9.00276 42.3131 9.00276C43.5559 9.00276 44.5776 8.5609 45.4337 7.70481C46.3451 6.79349 46.8145 5.74409 46.8145 4.50138C46.8145 3.25867 46.3727 2.23688 45.5166 1.38079C44.6605 0.469469 43.5559 0 42.3131 0C41.0704 0 39.9658 0.469469 39.1097 1.38079C38.2812 2.20927 37.8118 3.25867 37.8118 4.50138Z" fill="white"/>
<path d="M59.418 4.50138C59.418 5.74409 59.8598 6.79349 60.7159 7.70481C61.6272 8.53329 62.6766 9.00276 63.9193 9.00276C65.1621 9.00276 66.1838 8.5609 67.0399 7.70481C67.9513 6.79349 68.4207 5.74409 68.4207 4.50138C68.4207 3.25867 67.9789 2.23688 67.1228 1.38079C66.2667 0.469469 65.1621 0 63.9193 0C62.6766 0 61.572 0.469469 60.7159 1.38079C59.8874 2.20927 59.418 3.25867 59.418 4.50138Z" fill="white"/>
<path d="M80.4248 4.50138C80.4248 5.74409 80.8667 6.79349 81.7227 7.70481C82.6341 8.53329 83.6835 9.00276 84.9262 9.00276C86.1689 9.00276 87.1907 8.5609 88.0468 7.70481C88.9581 6.79349 89.4276 5.74409 89.4276 4.50138C89.4276 3.25867 88.9857 2.23688 88.1296 1.38079C87.2735 0.469469 86.1689 0 84.9262 0C83.6835 0 82.5788 0.469469 81.7227 1.38079C80.8943 2.20927 80.4248 3.25867 80.4248 4.50138Z" fill="white"/>
</svg>
